{
  "accessors": [
    {
      "bufferView": 1,
      "componentType": 5126,
      "count": 65532,
      "max": [
        144.8470001220703,
        267.6080017089844,
        84.90879821777344
      ],
      "min": [
        -18.713499069213867,
        14.801300048828125,
        -112.96800231933594
      ],
      "type": "VEC3"
    },
    {
      "bufferView": 1,
      "byteOffset": 786384,
      "componentType": 5126,
      "count": 65532,
      "max": [
        1.0,
        1.0,
        1.0
      ],
      "min": [
        -1.0,
        -1.0,
        -1.0
      ],
      "type": "VEC3"
    },
    {
      "bufferView": 0,
      "componentType": 5125,
      "count": 378411,
      "type": "SCALAR"
    },
    {
      "bufferView": 1,
      "byteOffset": 1572768,
      "componentType": 5126,
      "count": 18431,
      "max": [
        128.88900756835938,
        181.08200073242188,
        77.20169830322266
      ],
      "min": [
        -18.580400466918945,
        94.05719757080078,
        -102.92400360107422
      ],
      "type": "VEC3"
    },
    {
      "bufferView": 1,
      "byteOffset": 1793940,
      "componentType": 5126,
      "count": 18431,
      "max": [
        1.0,
        1.0,
        1.0
      ],
      "min": [
        -1.0,
        -1.0,
        -1.0
      ],
      "type": "VEC3"
    },
    {
      "bufferView": 0,
      "byteOffset": 1513644,
      "componentType": 5125,
      "count": 88158,
      "type": "SCALAR"
    },
    {
      "bufferView": 1,
      "byteOffset": 2015112,
      "componentType": 5126,
      "count": 65534,
      "max": [
        40.65760040283203,
        349.0669860839844,
        -7.151500225067139
      ],
      "min": [
        -47.01169967651367,
        1.5969699621200562,
        -136.3780059814453
      ],
      "type": "VEC3"
    },
    {
      "bufferView": 1,
      "byteOffset": 2801520,
      "componentType": 5126,
      "count": 65534,
      "max": [
        1.0,
        1.0,
        1.0
      ],
      "min": [
        -1.0,
        -1.0,
        -1.0
      ],
      "type": "VEC3"
    },
    {
      "bufferView": 0,
      "byteOffset": 1866276,
      "componentType": 5125,
      "count": 265911,
      "type": "SCALAR"
    },
    {
      "bufferView": 1,
      "byteOffset": 3587928,
      "componentType": 5126,
      "count": 16730,
      "max": [
        32.77040100097656,
        319.1579895019531,
        -48.123199462890625
      ],
      "min": [
        -43.29169845581055,
        140.54800415039063,
        -137.11500549316406
      ],
      "type": "VEC3"
    },
    {
      "bufferView": 1,
      "byteOffset": 3788688,
      "componentType": 5126,
      "count": 16730,
      "max": [
        1.0,
        1.0,
        1.0
      ],
      "min": [
        -1.0,
        -1.0,
        -1.0
      ],
      "type": "VEC3"
    },
    {
      "bufferView": 0,
      "byteOffset": 2929920,
      "componentType": 5125,
      "count": 48876,
      "type": "SCALAR"
    },
    {
      "bufferView": 1,
      "byteOffset": 3989448,
      "componentType": 5126,
      "count": 65534,
      "max": [
        -8.460630416870117,
        281.08599853515625,
        77.91840362548828
      ],
      "min": [
        -153.36399841308594,
        16.836299896240234,
        -121.2959976196289
      ],
      "type": "VEC3"
    },
    {
      "bufferView": 1,
      "byteOffset": 4775856,
      "componentType": 5126,
      "count": 65534,
      "max": [
        1.0,
        1.0,
        1.0
      ],
      "min": [
        -1.0,
        -1.0,
        -1.0
      ],
      "type": "VEC3"
    },
    {
      "bufferView": 0,
      "byteOffset": 3125424,
      "componentType": 5125,
      "count": 258441,
      "type": "SCALAR"
    },
    {
      "bufferView": 1,
      "byteOffset": 5562264,
      "componentType": 5126,
      "count": 65532,
      "max": [
        -8.460630416870117,
        281.08599853515625,
        77.31320190429688
      ],
      "min": [
        -152.88800048828125,
        76.25150299072266,
        -121.0719985961914
      ],
      "type": "VEC3"
    },
    {
      "bufferView": 1,
      "byteOffset": 6348648,
      "componentType": 5126,
      "count": 65532,
      "max": [
        1.0,
        1.0,
        1.0
      ],
      "min": [
        -1.0,
        -1.0,
        -1.0
      ],
      "type": "VEC3"
    },
    {
      "bufferView": 0,
      "byteOffset": 4159188,
      "componentType": 5125,
      "count": 166887,
      "type": "SCALAR"
    },
    {
      "bufferView": 1,
      "byteOffset": 7135032,
      "componentType": 5126,
      "count": 2204,
      "max": [
        -11.829400062561035,
        95.33059692382813,
        61.389400482177734
      ],
      "min": [
        -119.60399627685547,
        73.435302734375,
        -97.98760223388672
      ],
      "type": "VEC3"
    },
    {
      "bufferView": 1,
      "byteOffset": 7161480,
      "componentType": 5126,
      "count": 2204,
      "max": [
        1.0,
        0.9989149570465088,
        1.0
      ],
      "min": [
        -1.0,
        -1.0,
        -1.0
      ],
      "type": "VEC3"
    },
    {
      "bufferView": 0,
      "byteOffset": 4826736,
      "componentType": 5125,
      "count": 4053,
      "type": "SCALAR"
    }
  ],
  "asset": {
    "extras": {
      "author": "gabrielyuen (https://sketchfab.com/gabrielyuen)",
      "license": "CC-BY-4.0 (http://creativecommons.org/licenses/by/4.0/)",
      "source": "https://sketchfab.com/3d-models/segmentation-of-lungs-and-spinal-column-53341767b4a44521b01a42ff8846b089",
      "title": "Segmentation of Lungs and Spinal Column"
    },
    "generator": "Sketchfab-11.94.0",
    "version": "2.0"
  },
  "bufferViews": [
    {
      "buffer": 0,
      "byteLength": 4842948,
      "name": "floatBufferViews",
      "target": 34963
    },
    {
      "buffer": 0,
      "byteLength": 7187928,
      "byteOffset": 4842948,
      "byteStride": 12,
      "name": "floatBufferViews",
      "target": 34962
    }
  ],
  "buffers": [
    {
      "byteLength": 12030876,
      "uri": "scene.bin"
    }
  ],
  "extensionsRequired": [
    "KHR_materials_pbrSpecularGlossiness"
  ],
  "extensionsUsed": [
    "KHR_materials_pbrSpecularGlossiness"
  ],
  "materials": [
    {
      "doubleSided": true,
      "extensions": {
        "KHR_materials_pbrSpecularGlossiness": {
          "diffuseFactor": [
            0.299346,
            0.173856,
            0.1764710000000001,
            1.0
          ],
          "glossinessFactor": 0.02641676099061738,
          "specularFactor": [
            0.0,
            0.0,
            0.0
          ]
        }
      },
      "name": "mtl1"
    },
    {
      "doubleSided": true,
      "extensions": {
        "KHR_materials_pbrSpecularGlossiness": {
          "diffuseFactor": [
            0.186928,
            0.273203,
            0.27451,
            1.0
          ],
          "glossinessFactor": 0.03355400453209362,
          "specularFactor": [
            0.4090816506454104,
            0.4090816506454104,
            0.4090816506454104
          ]
        }
      },
      "name": "mtl151572"
    },
    {
      "doubleSided": true,
      "extensions": {
        "KHR_materials_pbrSpecularGlossiness": {
          "diffuseFactor": [
            0.3150329999999999,
            0.09411760000000002,
            0.12679700000000008,
            1.0
          ],
          "glossinessFactor": 0.01887824820928103,
          "specularFactor": [
            0.0,
            0.0,
            0.0
          ]
        }
      },
      "name": "mtl78862"
    }
  ],
  "meshes": [
    {
      "name": "Object_0",
      "primitives": [
        {
          "attributes": {
            "NORMAL": 1,
            "POSITION": 0
          },
          "indices": 2,
          "material": 0,
          "mode": 4
        }
      ]
    },
    {
      "name": "Object_1",
      "primitives": [
        {
          "attributes": {
            "NORMAL": 4,
            "POSITION": 3
          },
          "indices": 5,
          "material": 0,
          "mode": 4
        }
      ]
    },
    {
      "name": "Object_2",
      "primitives": [
        {
          "attributes": {
            "NORMAL": 7,
            "POSITION": 6
          },
          "indices": 8,
          "material": 1,
          "mode": 4
        }
      ]
    },
    {
      "name": "Object_3",
      "primitives": [
        {
          "attributes": {
            "NORMAL": 10,
            "POSITION": 9
          },
          "indices": 11,
          "material": 1,
          "mode": 4
        }
      ]
    },
    {
      "name": "Object_4",
      "primitives": [
        {
          "attributes": {
            "NORMAL": 13,
            "POSITION": 12
          },
          "indices": 14,
          "material": 2,
          "mode": 4
        }
      ]
    },
    {
      "name": "Object_5",
      "primitives": [
        {
          "attributes": {
            "NORMAL": 16,
            "POSITION": 15
          },
          "indices": 17,
          "material": 2,
          "mode": 4
        }
      ]
    },
    {
      "name": "Object_6",
      "primitives": [
        {
          "attributes": {
            "NORMAL": 19,
            "POSITION": 18
          },
          "indices": 20,
          "material": 2,
          "mode": 4
        }
      ]
    }
  ],
  "nodes": [
    {
      "children": [
        1
      ],
      "matrix": [
        -1.0,
        3.3306690738754696e-16,
        -6.123234262925832e-17,
        0.0,
        -3.3306690738754696e-16,
        -1.0,
        2.220446049250313e-16,
        0.0,
        -6.123234262925839e-17,
        2.220446049250313e-16,
        1.0,
        0.0,
        -8.517257690429688,
        149.2291412353516,
        -149.22914123535153,
        1.0
      ],
      "name": "Sketchfab_model"
    },
    {
      "children": [
        2,
        3,
        4,
        5,
        6,
        7,
        8
      ],
      "name": "Segmentation.obj.cleaner.materialmerger.gles"
    },
    {
      "mesh": 0,
      "name": "Object_2"
    },
    {
      "mesh": 1,
      "name": "Object_3"
    },
    {
      "mesh": 2,
      "name": "Object_4"
    },
    {
      "mesh": 3,
      "name": "Object_5"
    },
    {
      "mesh": 4,
      "name": "Object_6"
    },
    {
      "mesh": 5,
      "name": "Object_7"
    },
    {
      "mesh": 6,
      "name": "Object_8"
    }
  ],
  "scene": 0,
  "scenes": [
    {
      "name": "Sketchfab_Scene",
      "nodes": [
        0
      ]
    }
  ]
}
